<?xml version="1.0" encoding="UTF-8" standalone="no"?>
<!-- Created with Inkscape (http://www.inkscape.org/) -->

<svg
   xmlns:dc="http://purl.org/dc/elements/1.1/"
   xmlns:cc="http://creativecommons.org/ns#"
   xmlns:rdf="http://www.w3.org/1999/02/22-rdf-syntax-ns#"
   xmlns:svg="http://www.w3.org/2000/svg"
   xmlns="http://www.w3.org/2000/svg"
   xmlns:sodipodi="http://sodipodi.sourceforge.net/DTD/sodipodi-0.dtd"
   xmlns:inkscape="http://www.inkscape.org/namespaces/inkscape"
   width="396.60025mm"
   height="250.83835mm"
   viewBox="0 0 396.60025 250.83835"
   version="1.1"
   id="svg25566"
   inkscape:version="0.92.0 r15299"
   sodipodi:docname="davinci 1.svg">
  <defs
     id="defs25560" />
  <sodipodi:namedview
     id="base"
     pagecolor="#ffffff"
     bordercolor="#666666"
     borderopacity="1.0"
     inkscape:pageopacity="0.0"
     inkscape:pageshadow="2"
     inkscape:zoom="0.16898438"
     inkscape:cx="2196.7623"
     inkscape:cy="1613.5814"
     inkscape:document-units="mm"
     inkscape:current-layer="layer1"
     showgrid="false"
     fit-margin-top="0"
     fit-margin-left="0"
     fit-margin-right="0"
     fit-margin-bottom="0"
     inkscape:window-width="1536"
     inkscape:window-height="801"
     inkscape:window-x="-8"
     inkscape:window-y="-8"
     inkscape:window-maximized="1" />
  <metadata
     id="metadata25563">
    <rdf:RDF>
      <cc:Work
         rdf:about="">
        <dc:format>image/svg+xml</dc:format>
        <dc:type
           rdf:resource="http://purl.org/dc/dcmitype/StillImage" />
        <dc:title></dc:title>
      </cc:Work>
    </rdf:RDF>
  </metadata>
  <g
     inkscape:label="Layer 1"
     inkscape:groupmode="layer"
     id="layer1"
     transform="translate(859.41717,267.81099)">
    <g
       transform="matrix(0.35277777,0,0,-0.35277777,-859.41687,-16.973139)"
       inkscape:label="Flying Machine Wood 1"
       id="g26157">
      <g
         id="g26159">
        <g
           transform="matrix(1,0,0,-1,0,711.03686)"
           id="g26161">
          <path
             inkscape:connector-curvature="0"
             id="path26163"
             style="fill:none;stroke:#ff0000;stroke-width:1;stroke-linecap:butt;stroke-linejoin:bevel;stroke-miterlimit:4.9473691;stroke-dasharray:none;stroke-opacity:1"
             d="M 63.957,37.422 C 46.57,41.984 18.555,51.25 0.246,61.645 c 5.582,-1.372 11.582,-2.747 17.902,-4.118 46.559,9.235 27.895,51.309 19.504,63.399 -16.179,10.617 -21.543,20.668 -22.082,21.734 0,0 -0.031,0.028 -0.031,0.028 l 0.027,-0.008 c -0.027,0.054 -0.125,0.234 -0.125,0.234 3.125,-1.418 6.356,-2.851 9.649,-4.289 3.101,0.152 24.535,2.285 51.211,32.102 12.578,14.062 13.414,38.586 11.992,56.328 -18.063,25.875 -17.918,45.23 -17.918,45.23 5.699,-7.875 12.465,-16.019 20.078,-24.336 14.352,-10.355 62.188,-42.051 97.027,-31.457 17.211,5.235 25.344,14.645 29.168,21.867 -2.687,12.157 -2.015,20.036 -2.015,20.036 6.062,-10.235 12.301,-20.227 18.648,-29.95 9.942,-11.625 23.508,-23.242 37.317,-23.257 16.336,-0.02 22.394,11.968 24.281,24.437 -4.094,19.801 -1.481,31.102 -1.481,31.102 0.032,-0.09 0.063,-0.18 0.094,-0.266 0,0 0,0.047 0,0.047 1.828,-5.055 3.66,-9.938 5.492,-14.738 5.61,-11.551 20.129,-36.536 41.254,-37.086 9.262,-0.243 14.735,9.39 17.879,18.918 0.176,6.468 1.047,13.238 2.488,21.273 0.032,-0.117 0.063,-0.219 0.098,-0.336 0,0 0,0.117 0,0.117 0.41,-1.414 0.777,-2.629 1.18,-4.011 0.078,0.66 0.144,1.277 0.144,1.277 l 0.407,-3.172 c 1.703,-5.836 3.371,-11.531 4.957,-16.844 1.972,-1.273 4.871,-2.476 9.16,-3.273 8.992,-1.676 15.703,9.133 20.117,20.074 -1.43,7.738 -2.352,14.941 -2.617,21.637 -1.399,35.258 9.551,55.222 9.551,55.222 0.007,-0.171 0.015,-0.336 0.023,-0.503 0.016,0.05 0.074,0.281 0.074,0.281 0.297,-7.153 0.672,-14.078 1.117,-20.817 4.008,-3.711 13.149,-10.562 26.274,-10.554 12.723,0.007 25.75,16.879 35.234,32.836 9.449,34.058 22.867,54.332 22.867,54.332 -0.058,-0.289 -0.109,-0.575 -0.168,-0.86 0.063,0.149 0.262,0.641 0.262,0.641 -1.203,-6.156 -2.324,-12.254 -3.39,-18.309 l 1.457,5.184 c 0,0 -1.832,-32.07 25.703,-48.242 15.152,-8.895 28.16,-4.684 36.808,0.902 8.992,10.418 15.614,14.945 15.614,14.945 -0.118,-0.226 -0.227,-0.449 -0.34,-0.675 0.269,0.285 0.433,0.457 0.433,0.457 -5.789,-11.418 -11.004,-22.34 -15.757,-32.84 -1.258,-8.414 -4.477,-40.821 18.949,-50.293 2.461,-0.996 4.562,-1.559 6.363,-1.824 15.488,20.226 30.602,30.039 30.602,30.039 -0.145,-0.25 -0.278,-0.485 -0.418,-0.735 0.328,0.332 0.515,0.512 0.515,0.512 -5.636,-9.746 -10.742,-18.828 -15.379,-27.324 -1.527,-11.535 -0.476,-28.492 16.61,-35.403 2.433,-0.984 4.515,-1.546 6.3,-1.812 l 6.426,24.266 1.371,-0.364 0.094,0.356 h 0.012 c 0,0 1.523,-0.625 2.617,-1.074 l 10.59,-2.805 -0.442,-1.668 C 680.531,204.414 704.277,149.965 690.414,97.484 676.461,45.063 628.898,9.539 576.738,11.871 l -0.605,-2.289 -14.68,3.887 14.352,54.203 c -4.395,9.273 -11.352,15.902 -19.903,20.453 -2.941,1.055 -5.242,3.008 -9.898,4.156 -32.543,10.539 -79.539,-0.734 -103.672,-12.668 0,0 -33.391,-29.031 -37.855,-30.558 C 389.801,37.094 377.676,25.316 357.453,19.637 274.055,-20.832 74.055,35.063 74.055,35.063 71.426,35.57 67.98,36.371 63.969,37.426 Z M 49.781,51.211 c 45.477,-8.422 100.164,-16.109 147.153,-20.992 4.8,6.808 12.421,17.222 20.214,26.261 -1.765,0.532 -3.437,1.04 -5.175,1.563 0.074,-0.211 0.156,-0.422 0.222,-0.633 l -20.093,6.11 c -0.172,0.234 -0.352,0.464 -0.528,0.699 C 130.203,82.922 87.418,97.18 59.648,109.449 72.496,75.863 57.516,57.738 49.781,51.211 Z M 213.66,28.566 c 50.055,-4.648 88.031,-4.179 90.231,1.829 1.468,-0.375 0.269,1.066 0,0 -26.864,7.902 -52.5,15.851 -75.028,22.578 C 223.777,45.379 217.242,35.309 213.66,28.566 Z M 315.203,39.77 c 3.09,-0.809 5.656,-1.457 7.645,-1.918 0.972,-0.227 0.847,-0.192 1.496,-0.34 L 336.5,44.578 C 310.676,59.816 287.285,74.523 266.117,88.625 247.816,75.551 237.355,65.508 237.633,63.43 c 0.035,-0.035 0.07,-0.075 0.121,-0.102 0,0 -0.039,-0.09 -0.043,-0.105 0.035,-0.043 0.078,-0.082 0.137,-0.114 0,0 -0.102,-0.257 -0.196,-0.488 34.059,-10.625 62.235,-18.824 77.551,-22.855 z M 224.43,66.793 c 0.011,0.012 0.039,0.023 0.05,0.035 l 1.985,1.711 c 10.672,9.172 21.285,17.59 31.82,25.344 -4.984,3.371 -9.828,6.703 -14.558,10 -56.086,37.922 -99.106,67.219 -127.071,92.203 -1.754,-17.945 -10.14,-33.922 -21.332,-48.91 -15.828,-15.637 -26.035,-21.906 -33.07,-23.903 50.957,-20.035 111.652,-40.5 162.172,-56.48 z m 123.89,-14.602 11.094,8.414 c -20.105,17.571 -37.762,35.61 -53.238,53.317 -10.102,-5.684 -19.309,-11.32 -27.469,-16.695 29.602,-19.899 54.648,-35.758 69.613,-45.036 z m 19.914,16.395 10.95,13.078 c -14.254,18.012 -26.172,35.086 -36.079,51 -9.167,-4.152 -17.929,-8.465 -26.175,-12.828 19.465,-21.57 37.238,-38.977 51.304,-51.25 z m -97.636,34.078 c 9.824,6.785 19.574,12.977 29.23,18.633 -1.32,1.562 -2.621,3.121 -3.906,4.68 -26.965,31.437 -53.309,57.859 -66.859,81.031 -12.043,-20.363 -37.172,-31.887 -58.817,-31.195 33.27,-26.415 68.883,-51.79 100.352,-73.149 z M 581.441,29.676 c 40.411,-1.539 78.028,24.199 92.235,63.847 l -70.395,18.637 z m -191.105,55.832 16.105,12.715 c -6.918,11.91 -12.781,23.66 -17.761,35.035 -0.422,0.961 -0.836,1.918 -1.242,2.871 -1.762,4.109 -3.403,8.168 -4.938,12.16 -10.457,-3.559 -20.57,-7.465 -30.258,-11.601 13.813,-21.856 26.778,-38.27 38.094,-51.18 z m -80.023,41.746 c 9.312,5.113 18.531,9.73 27.644,13.891 -0.652,1.093 -1.281,2.179 -1.914,3.261 -13.488,22.602 -25.66,42.457 -32.93,59.137 -9.836,-16.145 -32.277,-13.746 -50.078,-4.059 19.242,-27.007 38.879,-51.355 57.278,-72.23 z m 104.859,-22.363 18.738,12.422 c -5.726,14.574 -10.555,28.421 -14.605,41.527 -9.309,-2.16 -18.446,-4.668 -27.352,-7.457 2.09,-5.406 4.094,-10.262 6.039,-14.695 5.883,-13.364 11.278,-22.844 17.18,-31.797 z m -68.152,40.246 c 10.898,4.648 21.632,8.648 32.175,12.062 -5.625,16.039 -14.664,32.121 -18.679,48.102 -12.551,-11.254 -29.278,-11.668 -42.457,-5.071 0.589,-1.285 1.183,-2.566 1.773,-3.828 0.023,-0.043 0.043,-0.093 0.066,-0.14 0.415,-0.883 0.829,-1.754 1.243,-2.629 0.828,-1.746 1.652,-3.485 2.48,-5.188 0.164,-0.34 0.328,-0.672 0.492,-1.007 7.75,-15.887 15.43,-29.899 22.907,-42.301 z m 96.886,-22.887 22.879,6.148 c -2.183,12.778 -3.769,25.29 -4.855,37.489 -11.106,-1.067 -22.067,-2.735 -32.817,-4.907 4.313,-13.351 8.766,-24.796 13.059,-34.765 0.582,-1.352 1.16,-2.668 1.734,-3.965 z m 33.762,8.762 14.77,2.758 c 1.523,11.71 3.312,22.765 5.281,33.3 -8.266,0.262 -16.492,0.133 -24.656,-0.336 1.019,-13.566 2.582,-25.554 4.605,-35.722 z m -88.996,29.121 c 9.547,2.812 18.93,5.148 28.129,7.07 -6.051,20.774 -11.598,39.207 -15.715,55.59 -7.578,-11.121 -17.453,-15.859 -28.484,-14.145 6.125,-19.921 11.343,-35.589 16.07,-48.515 z m 115.433,-24.508 c 1.778,0.016 14.934,0.117 29.77,0.262 1.898,9.09 4.199,17.793 6.789,26.101 -10.867,2.278 -21.742,3.77 -32.574,4.551 -1.945,-11.476 -3.164,-21.734 -3.985,-30.914 z m 169.961,-39.504 8.68,-2.301 2.297,8.68 -8.68,2.301 z m -55.75,14.848 8.676,-2.301 2.301,8.68 -8.68,2.297 z m -72.812,25.035 c 6.414,0.07 12.137,0.144 15.805,0.215 8.535,0.168 18.562,6.187 25.296,11.015 -0.054,0.032 -0.109,0.067 -0.16,0.09 -11.66,5.141 -23.425,9.137 -35.23,12.184 -2.621,-8.621 -4.379,-16.274 -5.711,-23.504 z m -118.926,33.101 c 11.926,2.145 23.512,3.59 34.727,4.461 -2.75,37.692 -4.965,72.02 -2.934,101.313 -11.992,-10.766 -28.723,-13.68 -51.246,-3.891 4.328,-42.254 11.512,-75.461 19.453,-101.883 z m 180.5,-42.609 70.547,-18.68 c 8.332,42.2 -11.684,84.247 -48.16,103.223 l -15.602,-58.918 c 0,-0.008 0.012,-0.023 -0.008,-0.027 z m -134.512,47.766 c 9.137,0.41 17.997,0.449 26.559,0.179 5.16,37.145 13.805,74.637 24.684,98.516 3.019,6.633 6.168,12.598 9.316,17.945 -21.191,-4.406 -41.262,4.758 -54.187,20.45 -6.875,-53.032 -8.512,-100.231 -6.372,-137.09 z m 36.852,-0.297 c 12,-0.735 23.332,-2.055 33.945,-3.742 4.301,18.09 9.5,34.8 16.11,48.726 -14.071,4.703 -26.059,17.446 -27.426,34.449 -11.57,-31.07 -18.449,-57.343 -22.629,-79.433 z m 44.672,-5.606 c 9.047,-0.839 16.648,-2.718 22.945,-5.359 8.141,-2.098 15.606,-4.309 22.281,-6.488 l 5.707,21.551 c -16.148,4.171 -30.308,18.914 -30.183,38.75 -9.586,-19.395 -16.145,-35.063 -20.75,-48.454 z" />
        </g>
        <g
           transform="matrix(1,0,0,-1,0,711.03686)"
           id="g26165">
          <path
             inkscape:connector-curvature="0"
             id="path26167"
             style="fill:none;stroke:#ff0000;stroke-width:1;stroke-linecap:butt;stroke-linejoin:bevel;stroke-miterlimit:4.9473691;stroke-dasharray:none;stroke-opacity:1"
             d="m 654.211,498.758 c 14.039,11.226 35.891,31.062 48.406,47.988 -4.547,-3.519 -9.472,-7.211 -14.691,-11.023 -46.301,-10.45 -46.313,35.578 -43.547,50.035 10.484,16.265 11.305,27.629 11.367,28.82 -0.004,0.004 0.02,0.039 0.02,0.039 l -0.024,-0.019 c 0,0.062 0.02,0.269 0.02,0.269 -2.282,-2.566 -4.653,-5.187 -7.082,-7.84 -2.895,-1.117 -23.352,-7.863 -59.828,8.575 -17.2,7.75 -27.914,29.824 -33.809,46.621 6.012,30.976 -1.973,48.609 -1.973,48.609 -2.011,-9.512 -4.894,-19.703 -8.48,-30.391 -8.918,-15.285 -39.781,-63.664 -75.922,-68.109 -17.859,-2.199 -29.109,3.102 -35.535,8.152 -2.473,12.204 -6.281,19.133 -6.281,19.133 -1.391,-11.816 -3.039,-23.48 -4.899,-34.941 -4.371,-14.66 -12.058,-30.781 -24.676,-36.395 -14.922,-6.644 -25.32,1.856 -32.105,12.485 -4.289,19.761 -11.262,29.031 -11.262,29.031 0.008,-0.094 0.016,-0.188 0.02,-0.285 0,0 -0.016,0.047 -0.016,0.047 0.379,-5.36 0.688,-10.567 0.961,-15.7 -0.445,-12.832 -3.582,-41.558 -22.664,-50.632 -8.371,-3.981 -17.277,2.605 -24.016,10.039 -2.785,5.843 -6.332,11.675 -10.902,18.433 0.012,-0.117 0.027,-0.226 0.047,-0.344 0,0 -0.047,0.106 -0.047,0.106 0.199,-1.457 0.355,-2.715 0.551,-4.145 -0.344,0.575 -0.653,1.11 -0.653,1.11 l 0.914,-3.063 c 0.813,-6.023 1.598,-11.906 2.305,-17.406 -1.285,-1.965 -3.449,-4.238 -7.047,-6.707 -7.539,-5.18 -18.058,1.977 -26.531,10.188 -1.832,7.652 -3.91,14.609 -6.383,20.839 -13.023,32.789 -31.133,46.598 -31.133,46.598 0.063,-0.156 0.122,-0.312 0.184,-0.469 -0.031,0.039 -0.184,0.227 -0.184,0.227 2.629,-6.656 5.098,-13.145 7.426,-19.481 -2.156,-5.015 -7.734,-14.988 -19.734,-20.304 -11.629,-5.157 -30.383,4.98 -45.524,15.718 -22.453,27.301 -42.941,40.387 -42.941,40.387 0.168,-0.238 0.332,-0.476 0.5,-0.719 -0.117,0.11 -0.496,0.481 -0.496,0.481 3.594,-5.137 7.094,-10.258 10.523,-15.36 l -3.433,4.149 c 0,0 14.683,-28.57 -3.926,-54.524 -10.238,-14.273 -23.84,-15.703 -34.012,-14.105 -12.441,5.875 -20.332,7.328 -20.332,7.328 0.199,-0.16 0.391,-0.32 0.586,-0.48 -0.363,0.152 -0.582,0.238 -0.582,0.238 9.922,-8.086 19.121,-15.953 27.723,-23.621 4.566,-7.18 20.652,-35.496 3.086,-53.656 -1.848,-1.911 -3.543,-3.278 -5.078,-4.246 -22.36,12.199 -40.157,15.039 -40.157,15.039 0.235,-0.172 0.45,-0.332 0.68,-0.5 -0.437,0.171 -0.68,0.261 -0.68,0.261 9.106,-6.625 17.457,-12.855 25.141,-18.742 6.074,-9.922 11.996,-25.848 -0.816,-39.094 -1.829,-1.886 -3.504,-3.246 -5.028,-4.214 l -15.719,19.574 -1.105,-0.887 -0.23,0.285 H 65.18 c 0,0 -1.141,-1.191 -1.957,-2.043 l -8.543,-6.859 1.078,-1.348 C 22.906,401.293 23.289,341.887 57.25,299.543 c 34.02,-42.254 91.898,-55.43 138.629,-32.141 l 1.484,-1.843 11.84,9.507 -35.105,43.719 c 0.257,10.258 3.925,19.141 9.894,26.77 2.262,2.156 3.574,4.875 7.36,7.816 25.472,22.832 73.003,31.59 99.902,30.477 0,0 42.297,-12.996 46.992,-12.578 18.27,-4.977 34.129,-10.829 54.918,-7.813 92.645,-3.16 252.777,129.055 252.777,129.055 2.196,1.531 5.02,3.664 8.258,6.254 z m 7.363,18.355 c -38.152,-26.144 -85.019,-55.355 -125.988,-78.875 -7.148,4.274 -18.34,10.7 -29.129,15.801 1.398,1.199 2.719,2.344 4.098,3.527 0.015,-0.222 0.027,-0.449 0.05,-0.668 l 15.891,13.735 c 0.063,0.285 0.129,0.566 0.199,0.851 48.508,41.993 81.828,72.379 102.235,94.86 1.883,-35.91 22.925,-46.403 32.644,-49.231 z M 520.969,429.941 c -43.867,-24.554 -78.77,-39.535 -83.215,-34.929 -1.191,-0.942 -0.68,0.863 0,0 21.348,18.117 41.555,35.785 59.414,51.07 7.73,-4.879 17.789,-11.434 23.801,-16.141 z m -97.36,-30.953 c -2.496,-1.992 -4.578,-3.625 -6.207,-4.855 -0.8,-0.602 -0.699,-0.52 -1.23,-0.918 l -13.977,1.531 c 17.422,24.402 32.836,47.332 46.465,68.813 22.028,-4.532 35.664,-9.465 36.254,-11.477 -0.016,-0.047 -0.035,-0.098 -0.07,-0.141 0,0 0.07,-0.07 0.082,-0.078 -0.012,-0.054 -0.039,-0.113 -0.078,-0.16 0,0 0.195,-0.195 0.379,-0.371 -26.825,-23.527 -49.25,-42.445 -61.618,-52.344 z m 72.012,61.524 c -0.019,0.008 -0.047,0.008 -0.062,0.011 l -2.508,0.754 c -13.477,4.059 -26.59,7.45 -39.363,10.262 3.187,5.106 6.261,10.113 9.246,15.047 35.882,57.41 63.316,101.637 78.742,135.82 8.883,-15.691 23.035,-26.894 39.34,-36.054 20.812,-7.868 32.683,-9.457 39.925,-8.43 -38.449,-38.984 -85.625,-82.309 -125.32,-117.41 z m -107.32,-63.602 -13.551,3.192 c 11.246,24.211 20.07,47.863 27.031,70.328 11.539,-1.098 22.242,-2.52 31.883,-4.117 -18.988,-30.2 -35.449,-54.852 -45.363,-69.403 z m -24.852,6.906 -15.312,7.512 c 5.722,22.246 9.687,42.688 12.285,61.25 10.066,-0.074 19.824,-0.465 29.133,-1.109 -9.043,-27.61 -18.227,-50.731 -26.106,-67.653 z m 75.418,70.758 c -11.73,2.211 -23.152,3.918 -34.273,5.168 0.574,1.965 1.129,3.918 1.672,5.863 11.89,39.676 25.254,74.508 28.242,101.188 19.265,-13.727 46.91,-14.066 66.414,-4.652 -19.699,-37.645 -41.953,-75.282 -62.055,-107.567 z M 184.355,281.766 C 148.043,263.965 103.223,272.23 74.148,302.707 l 56.782,45.594 z m 152.028,128.554 -19.879,5.086 c 1.492,13.692 2.086,26.813 2.023,39.231 -0.007,1.047 -0.015,2.09 -0.027,3.129 -0.059,4.468 -0.203,8.843 -0.418,13.117 11,0.984 21.828,1.519 32.359,1.668 -3.761,-25.582 -8.949,-45.844 -14.058,-62.231 z m 56.211,70.618 c -10.586,0.894 -20.887,1.378 -30.903,1.48 0.153,1.266 0.289,2.512 0.426,3.758 3.16,26.129 6.231,49.219 6.11,67.41 15.539,-10.766 35.078,0.531 47.418,16.605 -6.629,-32.492 -14.704,-62.711 -23.051,-89.253 z m -86.774,-62.977 -22.168,3.75 c -0.675,15.644 -1.879,30.262 -3.496,43.887 9.387,1.8 18.754,3.211 28.028,4.273 0.281,-5.789 0.421,-11.039 0.441,-15.879 0.043,-14.601 -1.039,-25.453 -2.805,-36.031 z m 45.969,64.434 c -11.848,-0.176 -23.281,-0.875 -34.305,-2.028 -1.367,16.942 0.371,35.305 -2.437,51.543 16.035,-5.199 31.496,1.211 40.863,12.586 -0.019,-1.414 -0.039,-2.824 -0.07,-4.215 v -0.16 c -0.02,-0.973 -0.043,-1.937 -0.067,-2.906 -0.05,-1.93 -0.101,-3.856 -0.164,-5.746 -0.015,-0.375 -0.031,-0.746 -0.043,-1.121 -0.64,-17.664 -1.972,-33.586 -3.773,-47.953 z m -79.273,-60.227 -23.407,-3.656 c -3.187,12.562 -6.816,24.644 -10.769,36.234 10.582,3.531 21.277,6.449 31.984,8.828 1.473,-13.953 2.047,-26.222 2.168,-37.078 0.016,-1.469 0.024,-2.906 0.024,-4.328 z m -34.414,-5.684 -14.622,-3.472 c -6.14,10.086 -12.261,19.468 -18.335,28.297 7.449,3.593 15.023,6.812 22.675,9.695 4.571,-12.816 8.004,-24.406 10.282,-34.52 z m 69.531,62.719 c -9.871,-1.301 -19.391,-2.973 -28.578,-4.949 -2.899,21.441 -5.305,40.539 -8.184,57.187 11.434,-7.089 22.383,-7.418 31.77,-1.375 2.48,-20.695 4.07,-37.132 4.992,-50.863 z m -95.57,-69.226 c -1.629,-0.707 -13.696,-5.95 -27.313,-11.836 -5.426,7.535 -11.059,14.558 -16.797,21.101 9.008,6.488 18.344,12.266 27.926,17.375 6.437,-9.703 11.711,-18.582 16.184,-26.64 z M 72.742,304.922 l -7,-5.621 -5.625,7.004 7,5.621 z m 44.934,36.187 -7,-5.621 -5.621,7 7,5.621 z m 56.394,52.418 c -5.89,-2.535 -11.152,-4.789 -14.535,-6.211 -7.867,-3.312 -19.472,-1.875 -27.59,-0.191 0.039,0.047 0.075,0.102 0.114,0.141 8.57,9.433 17.707,17.855 27.257,25.433 5.895,-6.82 10.606,-13.101 14.754,-19.172 z m 95.274,78.5 c -11.77,-2.879 -22.946,-6.257 -33.547,-10.007 -12.777,35.562 -24.676,67.839 -38.418,93.789 15.328,-4.973 31.801,-0.852 48.418,17.234 13.183,-40.375 20.09,-73.645 23.547,-101.016 z M 121.648,359.863 64.742,314.168 c -24.734,35.195 -23.492,81.746 2.149,113.887 l 38.16,-47.524 c 0.008,-0.008 0.008,-0.027 0.019,-0.023 l 16.575,-20.645 z m 103.575,98.223 c -8.52,-3.332 -16.637,-6.891 -24.352,-10.609 -19.781,31.855 -42.894,62.617 -62.523,80.031 -5.453,4.84 -10.746,9.012 -15.793,12.625 21.156,4.57 35.781,21.09 41.234,40.672 27.793,-45.684 48.438,-88.16 61.434,-122.719 z m -33.567,-15.223 c -10.668,-5.535 -20.492,-11.34 -29.511,-17.191 -11.27,14.793 -22.797,27.957 -34.485,38.004 10.949,10.008 16.738,26.519 11.09,42.617 23.18,-23.707 40.125,-44.93 52.906,-63.43 z m -38.554,-23.242 c -7.93,-4.441 -14.118,-9.238 -18.801,-14.207 -6.594,-5.219 -12.52,-10.269 -17.735,-14.969 l -13.957,17.383 c 13.067,10.363 20.032,29.582 11.868,47.664 16.632,-13.84 28.98,-25.5 38.625,-35.871 z" />
        </g>
        <g
           transform="matrix(1,0,0,-1,0,711.03686)"
           id="g26169">
          <path
             inkscape:connector-curvature="0"
             id="path26171"
             style="fill:none;stroke:#ff0000;stroke-width:1;stroke-linecap:butt;stroke-linejoin:miter;stroke-miterlimit:4.9473691;stroke-dasharray:none;stroke-opacity:1"
             d="m 1004.355,13.594 c 17.172,-5.309 45.856,-12.246 66.891,-13.094 -48.473,15.82 -123.949,48.195 -183.594,77.242 -0.48,8.317 -1.449,21.184 -3.289,32.977 84.375,-22.899 138.899,-36.199 172.496,-39.571 29.86,-2.996 44.426,6.375 44.426,6.375 -61.355,8.047 -149.269,28.313 -217.652,45.797 -0.008,0.02 -0.02,0.043 -0.024,0.059 l -0.785,2.5 c -4.226,13.473 -8.804,26.273 -13.672,38.457 94.43,3.582 159.934,5.656 199.563,17.613 40.762,12.297 54.285,34.438 54.285,34.438 -62.391,-25.492 -174.988,-34.86 -259.609,-38.215 -4.77,10.973 -9.786,21.402 -15.008,31.324 43.101,13.918 83.004,22.75 107.785,36.613 27.047,15.129 37.02,34.704 37.02,34.704 -52.571,-27.325 -105.645,-47.301 -150.524,-60.782 -5.211,9.274 -10.605,18.074 -16.148,26.426 29.449,15.234 54.984,27.711 70.699,40.625 24.457,20.102 30.328,37.328 30.328,37.328 -41.313,-32.562 -76.688,-54.547 -106.594,-69.801 -6.797,9.707 -13.801,18.774 -20.949,27.246 14.688,11.797 32.965,21.422 44.973,34.782 8.543,9.5 13.558,18.937 19.25,33.218 -31.25,-28.097 -53.41,-47 -70.707,-60.515 -6.625,7.437 -13.356,14.379 -20.157,20.875 31.5,28.234 56.7,49.898 70.645,70.445 19.816,29.195 21.066,51.93 21.066,51.93 -37.445,-54.938 -70.914,-90.922 -98.98,-115.613 -9.004,8.128 -18.082,15.484 -27.152,22.156 28.683,39.383 53.671,74.492 66.281,106.48 17.543,44.508 16.554,79.383 16.554,79.383 -28.562,-75.047 -62.441,-137.594 -91.96,-179.371 -7.563,5.195 -15.09,9.926 -22.524,14.234 15.246,34.262 27.715,70.661 31.098,96.684 5.758,44.27 -5.547,69.93 -5.547,69.93 -6.52,-74.34 -20.348,-125.403 -34.418,-161.645 -10.617,5.742 -20.977,10.633 -30.922,14.824 7.551,22.528 12.684,43.926 12.895,62.246 0.398,35.032 -10.864,59.028 -10.864,59.028 -1.84,-56.571 -6.14,-91.914 -11.968,-117.266 -76.098,38.254 -92.618,-67.539 -32.547,-68.828 32.968,-8.574 66.515,-42.656 80.597,-65.367 0,0 13.004,-42.293 15.989,-45.942 6.003,-17.511 10.027,-33.582 23.445,-48.781 48.148,-79.023 249.496,-137.824 249.496,-137.824 2.5,-0.957 5.852,-2.098 9.812,-3.324 z M 872.578,85.18 c -44.957,22.5 -76.953,42.961 -75.64,49.226 -1.446,0.453 0.332,1.047 0,0 26.98,-7.484 52.949,-14.281 75.625,-20.472 0.304,-9.137 0.535,-21.141 0.015,-28.754 z m -80.293,63.16 c -3.051,0.949 -5.574,1.75 -7.504,2.414 -0.945,0.32 -0.82,0.281 -1.449,0.5 l -6.664,12.562 c 30.082,-0.711 57.805,-0.586 83.309,0.204 9.23,-22.231 12.679,-36.77 10.511,-36.598 0,0 -0.066,-0.317 -0.125,-0.699 -34.605,8.996 -62.922,16.941 -78.078,21.617 z m -21.551,28.047 -5.011,13.101 c 26.437,4.297 51.043,10.301 73.601,17.176 5.606,-10.211 10.461,-19.906 14.563,-28.816 -35.766,-1.262 -65.504,-1.493 -83.153,-1.461 z m -8.246,24.441 -2.398,16.949 c 21.707,7.786 40.91,16.012 57.785,24.313 5.605,-8.391 10.777,-16.707 15.484,-24.793 -28.023,-8.067 -52.394,-13.473 -70.871,-16.469 z m -9.824,26.047 -6.965,19.328 c 17.696,9.375 33.332,19.645 46.981,29.973 7.008,-8.559 13.539,-17.235 19.586,-25.875 -23.375,-11.317 -43.121,-18.434 -59.602,-23.426 z m -10.844,29.574 -9.347,20.449 c 12.632,9.399 24.113,18.661 34.523,27.696 6.77,-6.762 13.207,-13.719 19.301,-20.801 -18.723,-14.09 -31.461,-21.355 -44.477,-27.344 z m -15.226,29.922 -16.176,17.309 c 8.66,9.754 16.664,19.601 24.07,29.445 8.887,-6.785 17.332,-14.012 25.328,-21.551 -12.246,-10.351 -23.336,-18.492 -33.222,-25.203 z m -23.992,25.238 -11.125,10.184 c 4.929,10.82 9.277,21.223 13.191,31.27 7.199,-4.165 14.156,-8.641 20.875,-13.379 -8.094,-11.063 -15.809,-20.481 -22.941,-28.075 z m -19.954,17.864 c -1.429,0.906 -12.664,8.019 -25.23,16.011 3.211,8.789 5.875,17.457 8.074,25.942 10.485,-3.821 20.559,-8.317 30.211,-13.399 -4.449,-10.863 -8.871,-20.277 -13.055,-28.554 z m -34.929,22.183 c -5.457,3.481 -10.321,6.594 -13.422,8.61 -7.203,4.679 -12.559,15.195 -15.719,22.867 0.145,-0.012 0.309,-0.008 0.445,-0.024 12.614,-1.793 24.715,-4.621 36.352,-8.269 -2.359,-8.793 -4.934,-16.285 -7.656,-23.184 z" />
        </g>
      </g>
    </g>
  </g>
</svg>
